<?xml version="1.0" encoding="utf-8"?>
<!-- Generator: Adobe Illustrator 19.1.0, SVG Export Plug-In . SVG Version: 6.00 Build 0)  -->
<svg version="1.1" id="Layer_1" xmlns="http://www.w3.org/2000/svg" xmlns:xlink="http://www.w3.org/1999/xlink" x="0px" y="0px"
	 viewBox="0 0 115.6 43.4" enable-background="new 0 0 115.6 43.4" xml:space="preserve">
<g>
	<g>
		<path fill="#404447" d="M47.8,18.2c0-0.5,0-1,0-1.4c0-0.4-0.2-0.5-0.5-0.5c-0.7,0-1.3,0-2,0c-0.4,0-0.6,0.2-0.6,0.6
			c0,4.1,0,8.2,0,12.3c0,0.4,0.2,0.6,0.6,0.6c0.7,0,1.3,0,2,0c0.6,0,0.7-0.1,0.7-0.7c0-2.5,0-5,0-7.5c0-0.5,0.1-1,0.3-1.5
			c0.2-0.6,0.8-0.9,1.4-0.8c0.6,0.1,1,0.4,1.2,1c0.1,0.5,0.2,1,0.2,1.5c0,2.5,0,4.9,0,7.4c0,0.5,0.1,0.7,0.7,0.7c0.6,0,1.3,0,1.9,0
			c0.6,0,0.7-0.1,0.7-0.7c0-2.3,0-4.6,0-6.9c0-0.4,0-0.9,0.1-1.3c0.1-0.6,0.3-1.1,0.8-1.5c0.9-0.6,2-0.1,2.2,1
			c0.1,0.4,0.1,0.8,0.1,1.2c0,2.5,0,5,0,7.5c0,0.5,0.2,0.6,0.6,0.6c0.7,0,1.4,0,2.1,0c0.4,0,0.6-0.2,0.6-0.6c0-3.1,0-6.2,0-9.3
			c0-0.6-0.1-1.2-0.3-1.8c-0.6-1.7-2.7-2.5-4.5-1.7c-0.9,0.4-1.5,1.1-1.9,2C53.5,16.9,52.6,16,51,16C49.4,16,48.4,16.8,47.8,18.2"/>
		<path fill="#404447" d="M42.9,27.4c-0.1-0.1-0.1-0.2-0.2-0.3c-0.6-0.7-0.8-1.5-0.8-2.3c0-1.7,0-3.4,0-5.1c0-1.8-0.8-2.9-2.4-3.4
			c-1.6-0.6-3.3-0.5-4.9,0.2c-1.4,0.6-2.2,1.6-2.6,3c-0.1,0.5,0,0.6,0.5,0.7c0.6,0.1,1.3,0.2,1.9,0.2c0.4,0,0.6,0,0.7-0.5
			c0.3-1.2,1.6-1.6,2.5-1.3c0.5,0.1,0.8,0.4,0.9,0.9c0.1,0.6,0.1,1.1,0.2,1.7c-0.2,0-0.4,0-0.5,0.1c-0.9,0.1-1.8,0.2-2.6,0.4
			c-1.1,0.2-2.1,0.6-2.8,1.4c-1,1.1-1.3,2.5-1,4c0.2,1.2,0.9,2.2,2.1,2.6c1.5,0.5,3,0.3,4.4-0.7c0.3-0.2,0.6-0.5,0.9-0.8
			c0.4,0.5,0.8,0.9,1.2,1.4c0.3,0.3,0.5,0.3,0.8,0c0.6-0.5,1.1-1,1.7-1.5C43,27.9,43,27.7,42.9,27.4 M38.4,25.6
			c-0.1,0.6-0.4,1-0.9,1.4c-0.5,0.4-1,0.5-1.6,0.3c-0.6-0.2-0.8-0.7-0.9-1.3c-0.2-1.4,0.4-2.3,1.9-2.7c0.5-0.1,1.1-0.1,1.6-0.2
			c0,0,0.1,0.1,0.1,0.1C38.6,24,38.6,24.8,38.4,25.6"/>
		<path fill="#404447" d="M74.1,27.4c-0.1-0.1-0.1-0.2-0.2-0.3c-0.5-0.7-0.7-1.4-0.7-2.2c0-1.7,0-3.4,0-5.1c0-1.8-0.9-3-2.5-3.5
			c-1.6-0.5-3.2-0.5-4.7,0.1c-1.4,0.6-2.3,1.6-2.7,3.1c-0.1,0.4,0,0.6,0.5,0.6c0.6,0.1,1.3,0.2,1.9,0.2c0.4,0,0.6,0,0.7-0.5
			c0.3-1.3,1.6-1.6,2.5-1.3c0.5,0.1,0.8,0.4,0.9,0.9c0.1,0.5,0.1,1.1,0.2,1.7c-0.2,0-0.4,0-0.5,0.1c-0.9,0.1-1.7,0.2-2.6,0.4
			c-1.1,0.2-2.1,0.6-2.8,1.5c-1,1.2-1.2,2.6-0.9,4c0.2,1.2,0.9,2.1,2.1,2.5c1.7,0.5,3.2,0.3,4.6-0.9c0.2-0.2,0.4-0.4,0.6-0.6
			c0.4,0.5,0.8,0.9,1.2,1.4c0.3,0.3,0.5,0.3,0.9,0c0.5-0.5,1.1-1,1.6-1.5C74.2,27.9,74.2,27.7,74.1,27.4 M69.6,25.6
			c-0.1,0.6-0.4,1.1-0.9,1.4c-1,0.8-2.3,0.3-2.4-1c-0.2-1.4,0.4-2.4,1.9-2.7c0.5-0.1,1.1-0.1,1.6-0.2c0,0,0.1,0.1,0.1,0.1
			C69.8,24,69.7,24.8,69.6,25.6"/>
		<path fill="#404447" d="M101.8,18.5C101.8,18.5,101.8,18.5,101.8,18.5c0-0.6,0-1.1,0-1.6c0-0.4-0.1-0.5-0.5-0.5
			c-0.7,0-1.4,0-2.1,0c-0.3,0-0.5,0.2-0.5,0.5c0,4.1,0,8.2,0,12.3c0,0.4,0.2,0.6,0.6,0.6c0.7,0,1.3,0,2,0c0.6,0,0.7-0.1,0.7-0.7
			c0-2.2,0-4.5,0-6.7c0-0.8,0.1-1.6,0.5-2.3c0.3-0.6,0.9-0.9,1.5-0.8c0.6,0.1,0.9,0.4,1.1,1.1c0.1,0.4,0.1,0.9,0.2,1.3
			c0,2.5,0,5,0,7.5c0,0.4,0.2,0.6,0.6,0.6c0.7,0,1.4,0,2.1,0c0.5,0,0.6-0.2,0.6-0.6c0-2.7,0-5.4,0-8.1c0-0.7-0.1-1.5-0.2-2.2
			c-0.2-1.5-1.2-2.5-2.7-2.7c-1.5-0.2-2.7,0.2-3.5,1.7C102,18,101.9,18.2,101.8,18.5"/>
		<path fill="#404447" d="M96.9,22.8c0-0.1,0-0.1,0-0.2c0-0.1,0-0.2,0-0.3c0,0,0-0.1,0-0.1c0-0.1,0-0.2,0-0.3
			c-0.1-1.1-0.4-2.1-0.9-3C95,17,93.6,16,91.5,16C89.5,16,88,17,87,18.7c-0.5,1-0.8,2.1-0.9,3.3c-0.1,1.7,0,3.3,0.7,4.8
			c0.8,1.8,2.2,2.9,4.2,3.1c2.1,0.1,3.7-0.8,4.7-2.6c0.5-0.9,0.8-1.8,0.9-2.7c0-0.1,0-0.2,0-0.3c0,0,0-0.1,0-0.1c0-0.1,0-0.3,0-0.4
			c0-0.1,0-0.2,0-0.3c0-0.1,0-0.3,0-0.4C96.9,22.9,96.9,22.9,96.9,22.8 M93.2,25.5c-0.1,0.4-0.2,0.8-0.4,1.1c-0.6,1-1.9,1-2.5,0
			c-0.3-0.6-0.5-1.3-0.5-2c-0.1-0.6-0.1-1.2-0.1-1.9c0,0,0,0-0.1,0c0.1-0.9,0.2-1.8,0.3-2.7c0-0.2,0.1-0.4,0.2-0.6
			c0.3-0.6,0.8-0.9,1.5-0.9c0.7,0.1,1.1,0.4,1.3,1c0.2,0.7,0.3,1.3,0.4,2C93.4,22.9,93.5,24.2,93.2,25.5"/>
		<path fill="#404447" d="M80.1,25.2c0.3-0.4,0.6-0.9,0.9-1.3c1.1-1.6,2.2-3.2,3.3-4.8c0.2-0.3,0.4-0.6,0.4-0.9c0.1-0.5,0-1,0-1.5
			c0-0.3-0.2-0.5-0.5-0.5c0,0-0.1,0-0.1,0c-2.5,0-5,0-7.5,0c-0.5,0-0.6,0.1-0.6,0.6c0,0.5,0,1.1,0,1.6c0,0.4,0.2,0.5,0.5,0.5
			c0.9,0,1.7,0,2.6,0c0.4,0,0.9,0,1.4,0c-0.1,0.1-0.1,0.2-0.2,0.3c-1.5,2.1-2.9,4.3-4.3,6.4c-0.2,0.3-0.4,0.7-0.4,1.1
			c-0.1,0.7,0,1.4,0,2.2c0,0.4,0.3,0.5,0.7,0.3c2.7-1.3,5.3-1.3,8-0.1c0.4,0.2,0.7,0,0.7-0.5c0-0.6,0-1.1,0-1.7
			c0-0.4-0.2-0.7-0.5-0.9c-0.6-0.2-1.2-0.5-1.8-0.7C81.8,25.4,81,25.3,80.1,25.2"/>
		<path fill="#404447" d="M7.8,27.7c0,0.1,0,0.1,0,0.2c-0.1,2.8-0.1,5.7-0.2,8.5c0,0.2,0.1,0.3,0.2,0.3c1.9,0.8,3.9,1.7,5.8,2.6
			c0.2,0.1,0.5,0.2,0.7,0.3c0-0.1,0-0.1,0-0.1c0-3,0-5.9,0-8.9c0-0.2-0.1-0.2-0.2-0.3c-2-0.8-4-1.6-6-2.4C8,27.7,7.9,27.7,7.8,27.7"
			/>
		<path fill="#404447" d="M6.7,26.8c0-0.1,0-0.1,0-0.2c0-2.9,0-5.9,0-8.8c0-0.2-0.1-0.3-0.2-0.3c-2-0.8-4-1.6-6-2.4
			c-0.1,0-0.2-0.1-0.3-0.1c0,0.1,0,0.1,0,0.2C0.1,18,0.1,20.8,0,23.6c0,0.2,0.1,0.3,0.2,0.3c1.6,0.7,3.2,1.4,4.8,2.1
			C5.6,26.3,6.1,26.6,6.7,26.8"/>
		<path fill="#404447" d="M21.6,26.5v-0.3c0-2.9,0-5.7,0-8.6c0-0.2-0.1-0.3-0.3-0.4c-1.8-0.7-3.6-1.4-5.4-2.1
			c-0.3-0.1-0.6-0.2-0.9-0.4c0,0.1,0,0.1,0,0.1c-0.1,2.8-0.1,5.7-0.2,8.5c0,0.2,0.1,0.2,0.2,0.3c1.6,0.7,3.1,1.4,4.7,2.1
			C20.4,26,21,26.2,21.6,26.5"/>
		<path fill="#404447" d="M43,14.3c0-0.1,0-0.1,0-0.1c0-3,0-6,0-8.9C43,5.1,42.9,5,42.8,5c-1.6-0.6-3.2-1.3-4.7-1.9
			c-0.5-0.2-1.1-0.4-1.7-0.7c0,1.2,0,2.4,0,3.5c0,1.7-0.1,3.5-0.1,5.2c0,0.2,0.1,0.3,0.2,0.3c1.1,0.5,2.2,1,3.4,1.5
			C40.9,13.4,41.9,13.8,43,14.3"/>
		<path fill="#404447" d="M44.2,13.4c0.1-0.1,0.2-0.1,0.3-0.1c1.8-0.7,3.6-1.5,5.5-2.2c0.2-0.1,0.3-0.2,0.3-0.4c0-2.6,0-5.3,0-7.9
			V2.4c-0.1,0-0.3,0.1-0.4,0.1c-1.8,0.7-3.6,1.4-5.5,2.1c-0.2,0.1-0.3,0.2-0.3,0.4c0,2.7,0,5.4,0,8.1V13.4z"/>
		<path fill="#404447" d="M21.6,27.7c-0.1,0-0.2,0.1-0.3,0.1c-1.8,0.7-3.7,1.4-5.5,2.1c-0.2,0.1-0.3,0.2-0.3,0.4c0,2.7,0,5.4,0,8.1
			v0.3c0.1,0,0.2-0.1,0.3-0.1c1.8-0.7,3.7-1.5,5.5-2.2c0.2-0.1,0.3-0.2,0.3-0.4c0-2.7,0-5.3,0-8C21.6,27.9,21.6,27.8,21.6,27.7"/>
		<path fill="#404447" d="M28.8,14.6c-0.1,0-0.2,0.1-0.3,0.1c-1.8,0.7-3.7,1.4-5.5,2.1c-0.2,0.1-0.3,0.2-0.3,0.4c0,2.7,0,5.4,0,8.1
			c0,0.1,0,0.2,0,0.3c0.1,0,0.2-0.1,0.3-0.1c1.8-0.8,3.7-1.5,5.5-2.2c0.2-0.1,0.3-0.2,0.3-0.4c0-2.7,0-5.3,0-8
			C28.8,14.9,28.8,14.8,28.8,14.6"/>
		<path fill="#404447" d="M7.9,26c0.1,0,0.2-0.1,0.3-0.1c1.8-0.7,3.7-1.5,5.5-2.2c0.2-0.1,0.3-0.2,0.3-0.4c0-2.6,0-5.3,0-7.9
			c0-0.1,0-0.2,0-0.3c-0.1,0-0.2,0.1-0.3,0.1c-1.8,0.7-3.6,1.4-5.5,2.1c-0.2,0.1-0.3,0.2-0.3,0.4c0,2.7,0,5.4,0,8V26z"/>
		<path fill="#404447" d="M28.2,13.1c0-0.1,0-0.1,0-0.2c0.1-2.6,0.1-5.1,0.2-7.7c0-0.2-0.1-0.3-0.2-0.3c-1.8-0.8-3.6-1.5-5.5-2.3
			c-0.1,0-0.1,0-0.2-0.1v8.9C24.4,12,26.3,12.6,28.2,13.1"/>
		<path fill="#404447" d="M29.9,14.1c0.1-0.1,0.2-0.1,0.3-0.1c1.6-0.7,3.2-1.5,4.9-2.2c0.2-0.1,0.3-0.2,0.3-0.4c0-2.7,0-5.3,0-8V3.1
			c-0.1,0-0.1,0-0.2,0.1c-1.7,0.7-3.4,1.4-5.1,2.2c-0.2,0.1-0.2,0.2-0.2,0.4c0,2.7,0,5.4,0,8.2V14.1z"/>
		<path fill="#404447" d="M38.2,43.1h1.3c0.7-3.1,1.5-6.1,2.2-9.2h-1.1c-0.5,2.3-1,4.6-1.6,7c0,0-0.1,0-0.1,0
			c-0.5-2.3-0.9-4.6-1.4-7h-1.2c-0.5,2.4-1,4.8-1.5,7.2c0,0,0,0-0.1,0c-0.5-2.4-1-4.8-1.5-7.2H32c0.7,3.1,1.4,6.2,2.2,9.2h1.3
			c0.5-2.3,0.9-4.6,1.4-7C37.3,38.5,37.8,40.8,38.2,43.1"/>
		<path fill="#404447" d="M56,36.1c-0.2-0.7-0.6-1.4-1.2-1.8c-0.9-0.7-2.4-0.8-3.2,0.5c0,0.1-0.1,0.1-0.2,0.2v-4.5h-1.2v12.7h1.1v-1
			c0,0,0,0,0.1,0c0,0.1,0.1,0.1,0.1,0.2c0.8,1.2,2.2,1.4,3.3,0.5c0.5-0.4,0.8-0.9,1.1-1.5C56.5,39.5,56.5,37.8,56,36.1 M54.8,40.6
			c-0.1,0.3-0.3,0.7-0.5,0.9c-0.6,0.8-1.6,0.7-2.3,0c-0.4-0.4-0.5-0.9-0.6-1.5c-0.1-1.1-0.2-2.1,0.1-3.2c0.1-0.5,0.4-1,0.7-1.3
			c0.6-0.6,1.4-0.6,2,0c0.5,0.5,0.7,1.2,0.8,1.9c0,0.4,0.1,0.8,0.1,1.2c0,0,0,0,0.1,0C55.1,39.2,55,39.9,54.8,40.6"/>
		<path fill="#404447" d="M70.4,41c-0.6,0.9-1.8,0.9-2.6,0.2c-0.7-0.7-0.9-1.6-0.9-2.6h5.3c0-0.5,0-1-0.1-1.5
			c-0.1-0.9-0.3-1.7-0.8-2.4c-1.3-1.9-3.8-1.6-4.8,0.1c-0.2,0.3-0.4,0.7-0.5,1.1c-0.4,1.4-0.4,2.8-0.2,4.2c0.2,0.9,0.5,1.6,1.2,2.2
			c0.9,0.8,2,1,3.2,0.5c1.2-0.5,1.7-1.5,2-2.8c-0.4-0.1-0.8-0.1-1.2-0.2C70.9,40.3,70.7,40.7,70.4,41 M68.4,34.8
			c0.6-0.3,1.4-0.1,1.9,0.4c0.6,0.6,0.7,1.3,0.7,2.1h-3.9C67,36.4,67.6,35.2,68.4,34.8"/>
		<path fill="#404447" d="M99.6,40.9c-0.6,1-1.9,1.1-2.7,0.3c-0.7-0.7-0.8-1.6-0.9-2.6h5.3c0-0.5,0-0.9,0-1.3
			c-0.1-0.9-0.3-1.7-0.8-2.5c-0.5-0.7-1.1-1.3-2-1.4c-1.4-0.2-2.6,0.5-3.2,1.9c-0.5,1-0.5,2.1-0.5,3.2c0,1,0.1,1.9,0.6,2.8
			c1.1,2.2,3.7,2.1,4.8,1c0.6-0.6,1-1.4,1.2-2.2c-0.4-0.1-0.8-0.1-1.2-0.2C99.9,40.2,99.8,40.6,99.6,40.9 M97.4,34.8
			c0.6-0.3,1.2-0.1,1.7,0.3c0.5,0.5,0.9,1.4,0.8,2.2h-3.9C95.9,36.4,96.6,35.1,97.4,34.8"/>
		<path fill="#404447" d="M47,41.3c-0.6,0.9-1.8,1-2.6,0.2c-0.7-0.7-0.8-1.6-0.9-2.6h5.3c0-0.5,0-1.1-0.1-1.6c-0.1-1-0.4-2-1.2-2.8
			c-0.7-0.8-1.6-1-2.6-0.8c-1.1,0.2-1.7,1-2.1,1.9c-0.5,1.1-0.6,2.3-0.5,3.5c0,0.9,0.2,1.8,0.7,2.6c1,1.6,3,2.1,4.4,1
			c0.8-0.6,1.1-1.5,1.3-2.4c-0.4-0.1-0.8-0.1-1.1-0.2C47.4,40.6,47.2,41,47,41.3 M44.6,35.3c0.6-0.5,1.5-0.4,2,0.1
			c0.5,0.5,0.7,1.1,0.8,1.8c0,0.1,0,0.3,0,0.5h-3.9C43.7,36.7,43.9,35.9,44.6,35.3"/>
		<path fill="#404447" d="M108,36c0-0.2,0-0.3-0.1-0.4c-0.1-0.8-0.5-1.5-1.3-1.9c-0.4-0.2-0.8-0.3-1.3-0.3c-1.6-0.1-2.8,0.9-2.8,2.6
			c0,1.1,0.4,1.9,1.4,2.4c0.7,0.3,1.5,0.6,2.2,0.9c0.4,0.2,0.8,0.4,0.8,1c0,0.5-0.2,1-0.6,1.3c-0.9,0.6-2.3,0.2-2.7-0.9
			c-0.1-0.2-0.1-0.5-0.2-0.8c-0.4,0.1-0.8,0.2-1.2,0.2c0,0.1,0,0.1,0,0.1c0,0.2,0.1,0.4,0.1,0.6c0.3,1.1,0.9,1.9,2.1,2.2
			c0.5,0.1,1,0.1,1.4,0c1.2-0.1,2.1-1.1,2.2-2.3c0.2-1.5-0.2-2.4-1.5-3c-0.1,0-0.2-0.1-0.3-0.1c-0.7-0.3-1.4-0.5-2.1-0.8
			c-0.4-0.2-0.6-0.5-0.6-1c0-0.4,0.2-0.8,0.6-1c1.1-0.6,2.3,0,2.5,1.2c0,0,0,0.1,0,0.1C107.2,36.1,107.6,36,108,36"/>
		<path fill="#404447" d="M64.4,36C64.4,35.9,64.4,35.9,64.4,36c0-0.2,0-0.2,0-0.3c-0.2-1.1-0.7-1.9-1.8-2.1c-0.5-0.1-1-0.1-1.4-0.1
			c-1.1,0.1-2,0.9-2.1,2c-0.2,1.3,0.2,2.4,1.3,2.9c0.8,0.3,1.6,0.6,2.3,0.9c1.1,0.4,0.9,1.7,0.2,2.2c-0.9,0.7-2.4,0.2-2.8-0.9
			c-0.1-0.2-0.1-0.5-0.2-0.7c-0.4,0.1-0.8,0.2-1.2,0.2c0,0.2,0,0.3,0.1,0.4c0,0.1,0,0.2,0.1,0.3c0.3,1.1,0.9,2,2.1,2.2
			c0.5,0.1,1,0.1,1.4,0c1.2-0.1,2.1-1.1,2.2-2.4c0.1-1.3-0.1-2.4-1.5-2.9c-0.1,0-0.2-0.1-0.3-0.1c-0.7-0.3-1.3-0.5-2-0.8
			c-0.4-0.2-0.6-0.5-0.6-1c0-0.5,0.3-0.8,0.7-1c0.9-0.3,2.1-0.2,2.4,1.2c0,0,0,0.1,0,0.2C63.7,36.1,64,36,64.4,36"/>
		<path fill="#404447" d="M93,39.4c-0.1,0.6-0.2,1.2-0.6,1.7c-0.6,0.7-1.6,0.8-2.3,0.2c-0.4-0.4-0.6-0.8-0.7-1.3
			c-0.2-1-0.2-2.1-0.1-3.1c0.1-0.6,0.3-1.2,0.7-1.7c0.9-0.9,2.1-0.7,2.6,0.5c0.1,0.3,0.2,0.5,0.3,0.8c0.4-0.1,0.8-0.2,1.2-0.2
			c-0.1-0.3-0.1-0.7-0.2-1c-0.5-1.5-1.9-2.3-3.4-1.8c-1.1,0.3-1.8,1.2-2.1,2.2c-0.4,1.2-0.4,2.5-0.3,3.8c0.1,0.8,0.3,1.6,0.9,2.3
			c0.9,1.2,2.4,1.5,3.6,0.8c1.1-0.7,1.5-1.8,1.6-3C93.7,39.6,93.3,39.5,93,39.4"/>
		<path fill="#404447" d="M82.9,33.6c-0.7,2.4-1.3,4.9-2,7.3c0-0.1,0-0.1,0-0.1c-0.6-2.3-1.3-4.7-1.9-7c0-0.1-0.1-0.2-0.2-0.2
			c-0.4,0-0.7,0-1.2,0c0.9,3.1,1.8,6.2,2.7,9.2h1.2c0.9-3.1,1.8-6.1,2.7-9.2H82.9z"/>
		<path fill="#404447" d="M33.5,1.9c-1.4-0.6-2.8-1.2-4.1-1.8C29,0,28.7,0,28.3,0.2c-1.3,0.6-2.7,1.2-4.1,1.7C24.3,2,24.4,2,24.4,2
			c1.3,0.6,2.6,1.1,4,1.7c0.1,0,0.3,0,0.4,0c0.4-0.2,0.9-0.3,1.3-0.5C31.2,2.8,32.3,2.4,33.5,1.9"/>
		<path fill="#404447" d="M19.3,27.2c-0.1,0-0.1-0.1-0.1-0.1c-1.4-0.6-2.8-1.2-4.3-1.8c-0.1-0.1-0.3,0-0.4,0c-1.1,0.5-2.3,1-3.4,1.5
			c-0.3,0.1-0.6,0.3-0.9,0.4c1.4,0.6,2.8,1.2,4.2,1.8c0.1,0,0.2,0,0.3,0c0.6-0.2,1.2-0.4,1.8-0.7C17.3,27.9,18.2,27.5,19.3,27.2"/>
		<path fill="#404447" d="M17.3,14.1c1.4,0.6,2.8,1.2,4.1,1.8c0.1,0,0.2,0,0.3,0c0.8-0.3,1.6-0.6,2.4-0.9c0.8-0.3,1.5-0.6,2.3-0.9
			c-0.1,0-0.1-0.1-0.2-0.1c-1.4-0.6-2.8-1.2-4.2-1.8c-0.1,0-0.3,0-0.4,0c-0.9,0.4-1.9,0.8-2.8,1.2C18.4,13.7,17.9,13.9,17.3,14.1"/>
		<path fill="#404447" d="M2.5,14.5c0.1,0.1,0.1,0.1,0.2,0.1c1.3,0.6,2.6,1.1,3.9,1.7c0.1,0,0.3,0,0.4,0c1.1-0.4,2.2-0.8,3.3-1.2
			c0.4-0.2,0.9-0.3,1.3-0.5c0,0-0.1-0.1-0.1-0.1c-1.4-0.6-2.9-1.2-4.3-1.9c-0.1,0-0.2,0-0.3,0C5.5,13.2,4,13.8,2.5,14.5"/>
		<path fill="#404447" d="M38.8,1.9C38.9,2,39,2,39.1,2.1c1.2,0.5,2.5,1.1,3.7,1.6c0.1,0.1,0.3,0.1,0.5,0c1.1-0.4,2.2-0.8,3.3-1.2
			C47,2.3,47.5,2.1,48,1.9c-1.5-0.7-3-1.3-4.4-1.9c-0.1,0-0.3,0-0.4,0c-0.5,0.2-1,0.4-1.5,0.6C40.7,1.1,39.8,1.5,38.8,1.9"/>
		<path fill="#404447" d="M74.8,33.6h-1.1v9.2H75c0-0.1,0-0.2,0-0.3c0-1.8,0-3.5,0.1-5.3c0-0.5,0.1-1,0.3-1.5c0.3-0.7,1-0.9,1.7-0.5
			c0.1,0,0.1,0.1,0.2,0.1c0.1-0.4,0.2-0.9,0.3-1.3c0-0.1,0-0.2,0-0.2c-0.3-0.3-0.7-0.4-1.2-0.4c-0.5,0-0.8,0.3-1.1,0.8
			c-0.1,0.2-0.3,0.5-0.4,0.7c0,0,0,0,0,0V33.6z"/>
		<rect x="85.2" y="33.6" fill="#404447" width="1.2" height="9.2"/>
		<path fill="#404447" d="M112.3,34v3.5h0.4v-2.8c0,0,0,0,0.1,0c0.3,0.9,0.6,1.9,1,2.8h0.4c0.3-0.9,0.6-1.8,1-2.8c0,0,0,0,0.1,0v2.7
			h0.4V34c-0.1,0-0.2,0-0.3,0c-0.2,0-0.3,0.1-0.4,0.3c-0.1,0.5-0.3,1-0.5,1.5c-0.1,0.4-0.3,0.8-0.4,1.2c-0.4-1-0.7-2-1-3H112.3z"/>
		<polygon fill="#404447" points="111.8,34 109,34 109,34.4 110.1,34.4 110.1,37.5 110.6,37.5 110.6,36 110.6,34.4 111.8,34.4 		"/>
		<rect x="85.2" y="30.1" fill="#404447" width="1.2" height="1.8"/>
		<path fill="#404447" d="M47.8,18.2c0.6-1.4,1.6-2.2,3.2-2.2c1.6,0,2.5,0.9,3.1,2.3c0.4-1,1-1.6,1.9-2c1.8-0.8,3.9,0,4.5,1.7
			c0.2,0.6,0.3,1.2,0.3,1.8c0,3.1,0,6.2,0,9.3c0,0.4-0.2,0.5-0.6,0.6c-0.7,0-1.4,0-2.1,0c-0.5,0-0.6-0.2-0.6-0.6c0-2.5,0-5,0-7.5
			c0-0.4,0-0.8-0.1-1.2c-0.1-1.1-1.2-1.6-2.2-1c-0.5,0.3-0.8,0.9-0.8,1.5c0,0.4-0.1,0.8-0.1,1.3c0,2.3,0,4.6,0,6.9
			c0,0.5-0.1,0.7-0.7,0.7c-0.6,0-1.3,0-1.9,0c-0.5,0-0.7-0.1-0.7-0.7c0-2.5,0-4.9,0-7.4c0-0.5-0.1-1-0.2-1.5c-0.2-0.6-0.6-0.9-1.2-1
			c-0.6-0.1-1.2,0.2-1.4,0.8c-0.2,0.5-0.3,1-0.3,1.5c0,2.5,0,5,0,7.5c0,0.6-0.1,0.7-0.7,0.7c-0.7,0-1.3,0-2,0
			c-0.4,0-0.6-0.2-0.6-0.6c0-4.1,0-8.2,0-12.3c0-0.4,0.2-0.6,0.6-0.6c0.7,0,1.3,0,2,0c0.4,0,0.5,0.2,0.5,0.5
			C47.8,17.3,47.8,17.8,47.8,18.2"/>
		<path fill="#404447" d="M42.9,27.4c-0.1-0.1-0.1-0.2-0.2-0.3c-0.6-0.7-0.8-1.5-0.8-2.3c0-1.7,0-3.4,0-5.1c0-1.8-0.8-2.9-2.4-3.4
			c-1.6-0.6-3.3-0.5-4.9,0.2c-1.4,0.6-2.2,1.6-2.6,3c-0.1,0.5,0,0.6,0.5,0.7c0.6,0.1,1.3,0.2,1.9,0.2c0.4,0,0.6,0,0.7-0.5
			c0.3-1.2,1.6-1.6,2.5-1.3c0.5,0.1,0.8,0.4,0.9,0.9c0.1,0.6,0.1,1.1,0.2,1.7c-0.2,0-0.4,0-0.5,0.1c-0.9,0.1-1.8,0.2-2.6,0.4
			c-1.1,0.2-2.1,0.6-2.8,1.4c-1,1.1-1.3,2.5-1,4c0.2,1.2,0.9,2.2,2.1,2.6c1.5,0.5,3,0.3,4.4-0.7c0.3-0.2,0.6-0.5,0.9-0.8
			c0.4,0.5,0.8,0.9,1.2,1.4c0.3,0.3,0.5,0.3,0.8,0c0.6-0.5,1.1-1,1.7-1.5C43,27.9,43,27.7,42.9,27.4 M38.4,25.6
			c-0.1,0.6-0.4,1-0.9,1.4c-0.5,0.4-1,0.5-1.6,0.3c-0.6-0.2-0.8-0.7-0.9-1.3c-0.2-1.4,0.4-2.3,1.9-2.7c0.5-0.1,1.1-0.1,1.6-0.2
			c0,0,0.1,0.1,0.1,0.1C38.6,24,38.6,24.8,38.4,25.6"/>
		<path fill="#404447" d="M74.1,27.4c-0.1-0.1-0.1-0.2-0.2-0.3c-0.5-0.7-0.7-1.4-0.7-2.2c0-1.7,0-3.4,0-5.1c0-1.8-0.9-3-2.5-3.5
			c-1.6-0.5-3.2-0.5-4.7,0.1c-1.4,0.6-2.3,1.6-2.7,3.1c-0.1,0.4,0,0.6,0.5,0.6c0.6,0.1,1.3,0.2,1.9,0.2c0.4,0,0.6,0,0.7-0.5
			c0.3-1.3,1.6-1.6,2.5-1.3c0.5,0.1,0.8,0.4,0.9,0.9c0.1,0.5,0.1,1.1,0.2,1.7c-0.2,0-0.4,0-0.5,0.1c-0.9,0.1-1.7,0.2-2.6,0.4
			c-1.1,0.2-2.1,0.6-2.8,1.5c-1,1.2-1.2,2.6-0.9,4c0.2,1.2,0.9,2.1,2.1,2.5c1.7,0.5,3.2,0.3,4.6-0.9c0.2-0.2,0.4-0.4,0.6-0.6
			c0.4,0.5,0.8,0.9,1.2,1.4c0.3,0.3,0.5,0.3,0.9,0c0.5-0.5,1.1-1,1.6-1.5C74.2,27.9,74.2,27.7,74.1,27.4 M69.6,25.6
			c-0.1,0.6-0.4,1.1-0.9,1.4c-1,0.8-2.3,0.3-2.4-1c-0.2-1.4,0.4-2.4,1.9-2.7c0.5-0.1,1.1-0.1,1.6-0.2c0,0,0.1,0.1,0.1,0.1
			C69.8,24,69.7,24.8,69.6,25.6"/>
		<path fill="#404447" d="M101.8,18.5c0.1-0.2,0.2-0.5,0.3-0.7c0.8-1.5,1.9-1.9,3.5-1.7c1.4,0.2,2.4,1.2,2.7,2.7
			c0.1,0.7,0.2,1.5,0.2,2.2c0,2.7,0,5.4,0,8.1c0,0.4-0.2,0.6-0.6,0.6c-0.7,0-1.4,0-2.1,0c-0.4,0-0.6-0.2-0.6-0.6c0-2.5,0-5,0-7.5
			c0-0.4-0.1-0.9-0.2-1.3c-0.2-0.7-0.5-1.1-1.1-1.1c-0.6-0.1-1.2,0.2-1.5,0.8c-0.4,0.7-0.5,1.5-0.5,2.3c0,2.2,0,4.5,0,6.7
			c0,0.6-0.1,0.7-0.7,0.7c-0.7,0-1.3,0-2,0c-0.4,0-0.6-0.2-0.6-0.6c0-4.1,0-8.2,0-12.3c0-0.3,0.2-0.5,0.5-0.5c0.7,0,1.4,0,2.1,0
			c0.4,0,0.5,0.2,0.5,0.5C101.8,17.4,101.8,17.9,101.8,18.5C101.8,18.5,101.8,18.5,101.8,18.5"/>
		<path fill="#404447" d="M96.9,22.8c0-0.1,0-0.1,0-0.2c0-0.1,0-0.2,0-0.3c0,0,0-0.1,0-0.1c0-0.1,0-0.2,0-0.3
			c-0.1-1.1-0.4-2.1-0.9-3C95,17,93.6,16,91.5,16C89.5,16,88,17,87,18.7c-0.5,1-0.8,2.1-0.9,3.3c-0.1,1.7,0,3.3,0.7,4.8
			c0.8,1.8,2.2,2.9,4.2,3.1c2.1,0.1,3.7-0.8,4.7-2.6c0.5-0.9,0.8-1.8,0.9-2.7c0-0.1,0-0.2,0-0.3c0,0,0-0.1,0-0.1c0-0.1,0-0.3,0-0.4
			c0-0.1,0-0.2,0-0.3c0-0.1,0-0.3,0-0.4C96.9,22.9,96.9,22.9,96.9,22.8 M93.2,25.5c-0.1,0.4-0.2,0.8-0.4,1.1c-0.6,1-1.9,1-2.5,0
			c-0.3-0.6-0.5-1.3-0.5-2c-0.1-0.6-0.1-1.2-0.1-1.9c0,0,0,0-0.1,0c0.1-0.9,0.2-1.8,0.3-2.7c0-0.2,0.1-0.4,0.2-0.6
			c0.3-0.6,0.8-0.9,1.5-0.9c0.7,0.1,1.1,0.4,1.3,1c0.2,0.7,0.3,1.3,0.4,2C93.4,22.9,93.5,24.2,93.2,25.5"/>
		<path fill="#404447" d="M80.1,25.2c0.8,0.1,1.7,0.2,2.5,0.3c0.6,0.1,1.2,0.4,1.8,0.7c0.4,0.2,0.5,0.5,0.5,0.9c0,0.6,0,1.1,0,1.7
			c0,0.5-0.3,0.7-0.7,0.5c-2.7-1.3-5.3-1.3-8,0.1c-0.3,0.2-0.6,0-0.7-0.3c0-0.7,0-1.4,0-2.2c0-0.4,0.2-0.8,0.4-1.1
			c1.4-2.2,2.9-4.3,4.3-6.4c0.1-0.1,0.1-0.2,0.2-0.3c-0.5,0-0.9,0-1.4,0c-0.9,0-1.7,0-2.6,0c-0.4,0-0.5-0.2-0.5-0.5
			c0-0.5,0-1.1,0-1.6c0-0.5,0.1-0.6,0.6-0.6c2.5,0,5,0,7.5,0c0,0,0.1,0,0.1,0c0.3,0,0.5,0.2,0.5,0.5c0,0.5,0.1,1,0,1.5
			c0,0.3-0.2,0.6-0.4,0.9c-1.1,1.6-2.2,3.2-3.3,4.8C80.7,24.3,80.4,24.8,80.1,25.2"/>
		<path fill="#404447" d="M7.8,27.7c0.1,0,0.2,0.1,0.3,0.1c2,0.8,4,1.6,6,2.4c0.2,0.1,0.2,0.1,0.2,0.3c0,3,0,5.9,0,8.9
			c0,0,0,0.1,0,0.1c-0.2-0.1-0.5-0.2-0.7-0.3c-1.9-0.9-3.9-1.7-5.8-2.6c-0.2-0.1-0.2-0.1-0.2-0.3c0.1-2.8,0.1-5.7,0.2-8.5
			C7.8,27.8,7.8,27.8,7.8,27.7"/>
		<path fill="#404447" d="M6.7,26.8c-0.6-0.3-1.2-0.5-1.7-0.8c-1.6-0.7-3.2-1.4-4.8-2.1C0.1,23.9,0,23.8,0,23.6
			c0.1-2.8,0.1-5.7,0.2-8.5c0,0,0-0.1,0-0.2c0.1,0,0.2,0.1,0.3,0.1c2,0.8,4,1.6,6,2.4c0.2,0.1,0.2,0.1,0.2,0.3c0,2.9,0,5.9,0,8.8
			C6.8,26.7,6.7,26.7,6.7,26.8"/>
		<path fill="#404447" d="M21.6,26.5c-0.6-0.3-1.2-0.5-1.8-0.8c-1.6-0.7-3.1-1.4-4.7-2.1c-0.1-0.1-0.2-0.1-0.2-0.3
			c0.1-2.8,0.1-5.7,0.2-8.5c0,0,0-0.1,0-0.1c0.3,0.1,0.6,0.2,0.9,0.4c1.8,0.7,3.6,1.4,5.4,2.1c0.2,0.1,0.3,0.2,0.3,0.4
			c0,2.9,0,5.7,0,8.6V26.5z"/>
		<path fill="#404447" d="M43,14.3c-1.1-0.5-2.1-0.9-3.1-1.4c-1.1-0.5-2.2-1-3.4-1.5c-0.2-0.1-0.2-0.1-0.2-0.3
			c0-1.7,0.1-3.5,0.1-5.2c0-1.1,0-2.3,0-3.5c0.6,0.2,1.1,0.5,1.7,0.7c1.6,0.6,3.2,1.3,4.7,1.9C42.9,5,43,5.1,43,5.3c0,3,0,6,0,8.9
			C43,14.2,43,14.2,43,14.3"/>
		<path fill="#404447" d="M44.2,13.4v-0.3c0-2.7,0-5.4,0-8.1c0-0.2,0.1-0.3,0.3-0.4c1.8-0.7,3.6-1.4,5.5-2.1c0.1,0,0.2-0.1,0.4-0.1
			v0.4c0,2.6,0,5.3,0,7.9c0,0.2-0.1,0.3-0.3,0.4c-1.8,0.7-3.6,1.5-5.5,2.2C44.4,13.4,44.3,13.4,44.2,13.4"/>
		<path fill="#404447" d="M21.6,27.7c0,0.1,0,0.2,0,0.3c0,2.7,0,5.3,0,8c0,0.2-0.1,0.3-0.3,0.4c-1.8,0.7-3.7,1.5-5.5,2.2
			c-0.1,0-0.2,0.1-0.3,0.1v-0.3c0-2.7,0-5.4,0-8.1c0-0.2,0.1-0.3,0.3-0.4c1.8-0.7,3.7-1.4,5.5-2.1C21.4,27.7,21.5,27.7,21.6,27.7"/>
		<path fill="#404447" d="M28.8,14.6c0,0.1,0,0.2,0,0.3c0,2.7,0,5.3,0,8c0,0.2-0.1,0.3-0.3,0.4c-1.9,0.7-3.7,1.5-5.5,2.2
			c-0.1,0-0.2,0.1-0.3,0.1c0-0.1,0-0.2,0-0.3c0-2.7,0-5.4,0-8.1c0-0.2,0.1-0.3,0.3-0.4c1.8-0.7,3.7-1.4,5.5-2.1
			C28.6,14.7,28.7,14.7,28.8,14.6"/>
		<path fill="#404447" d="M7.9,26v-0.3c0-2.7,0-5.4,0-8c0-0.2,0.1-0.3,0.3-0.4c1.8-0.7,3.6-1.4,5.5-2.1c0.1,0,0.2-0.1,0.3-0.1
			c0,0.1,0,0.2,0,0.3c0,2.6,0,5.3,0,7.9c0,0.2-0.1,0.3-0.3,0.4c-1.8,0.7-3.7,1.5-5.5,2.2C8.2,25.9,8.1,25.9,7.9,26"/>
		<path fill="#404447" d="M28.2,13.1c-1.9-0.6-3.8-1.1-5.7-1.7V2.6c0.1,0,0.2,0,0.2,0.1c1.8,0.8,3.6,1.5,5.5,2.3
			c0.2,0.1,0.2,0.2,0.2,0.3c-0.1,2.6-0.1,5.1-0.2,7.7C28.2,13,28.2,13.1,28.2,13.1"/>
		<path fill="#404447" d="M29.9,14.1v-0.3c0-2.7,0-5.4,0-8.2c0-0.2,0-0.3,0.2-0.4c1.7-0.7,3.4-1.4,5.1-2.2c0.1,0,0.1,0,0.2-0.1v0.3
			c0,2.7,0,5.3,0,8c0,0.2-0.1,0.3-0.3,0.4c-1.6,0.7-3.2,1.5-4.9,2.2C30.1,14,30,14.1,29.9,14.1"/>
		<path fill="#404447" d="M38.2,43.1c-0.5-2.3-0.9-4.6-1.4-6.9c-0.5,2.4-0.9,4.7-1.4,7h-1.3c-0.7-3.1-1.4-6.1-2.2-9.2h1.2
			c0.5,2.4,1,4.8,1.5,7.2c0,0,0,0,0.1,0c0.5-2.4,1-4.8,1.5-7.2h1.2c0.5,2.3,0.9,4.6,1.4,7c0,0,0.1,0,0.1,0c0.5-2.3,1-4.6,1.6-7h1.1
			C41,37,40.2,40,39.5,43.1H38.2z"/>
		<path fill="#404447" d="M56,36.1c-0.2-0.7-0.6-1.4-1.2-1.8c-0.9-0.7-2.4-0.8-3.2,0.5c0,0.1-0.1,0.1-0.2,0.2v-4.5h-1.2v12.7h1.1v-1
			c0,0,0,0,0.1,0c0,0.1,0.1,0.1,0.1,0.2c0.8,1.2,2.2,1.4,3.3,0.5c0.5-0.4,0.8-0.9,1.1-1.5C56.5,39.5,56.5,37.8,56,36.1 M54.8,40.6
			c-0.1,0.3-0.3,0.7-0.5,0.9c-0.6,0.8-1.6,0.7-2.3,0c-0.4-0.4-0.5-0.9-0.6-1.5c-0.1-1.1-0.2-2.1,0.1-3.2c0.1-0.5,0.4-1,0.7-1.3
			c0.6-0.6,1.4-0.6,2,0c0.5,0.5,0.7,1.2,0.8,1.9c0,0.4,0.1,0.8,0.1,1.2c0,0,0,0,0.1,0C55.1,39.2,55,39.9,54.8,40.6"/>
		<path fill="#404447" d="M70.4,41c-0.6,0.9-1.8,0.9-2.6,0.2c-0.7-0.7-0.9-1.6-0.9-2.6h5.3c0-0.5,0-1-0.1-1.5
			c-0.1-0.9-0.3-1.7-0.8-2.4c-1.3-1.9-3.8-1.6-4.8,0.1c-0.2,0.3-0.4,0.7-0.5,1.1c-0.4,1.4-0.4,2.8-0.2,4.2c0.2,0.9,0.5,1.6,1.2,2.2
			c0.9,0.8,2,1,3.2,0.5c1.2-0.5,1.7-1.5,2-2.8c-0.4-0.1-0.8-0.1-1.2-0.2C70.9,40.3,70.7,40.7,70.4,41 M68.4,34.8
			c0.6-0.3,1.4-0.1,1.9,0.4c0.6,0.6,0.7,1.3,0.7,2.1h-3.9C67,36.4,67.6,35.2,68.4,34.8"/>
		<path fill="#404447" d="M99.6,40.9c-0.6,1-1.9,1.1-2.7,0.3c-0.7-0.7-0.8-1.6-0.9-2.6h5.3c0-0.5,0-0.9,0-1.3
			c-0.1-0.9-0.3-1.7-0.8-2.5c-0.5-0.7-1.1-1.3-2-1.4c-1.4-0.2-2.6,0.5-3.2,1.9c-0.5,1-0.5,2.1-0.5,3.2c0,1,0.1,1.9,0.6,2.8
			c1.1,2.2,3.7,2.1,4.8,1c0.6-0.6,1-1.4,1.2-2.2c-0.4-0.1-0.8-0.1-1.2-0.2C99.9,40.2,99.8,40.6,99.6,40.9 M97.4,34.8
			c0.6-0.3,1.2-0.1,1.7,0.3c0.5,0.5,0.9,1.4,0.8,2.2h-3.9C95.9,36.4,96.6,35.1,97.4,34.8"/>
		<path fill="#404447" d="M47,41.3c-0.6,0.9-1.8,1-2.6,0.2c-0.7-0.7-0.8-1.6-0.9-2.6h5.3c0-0.5,0-1.1-0.1-1.6c-0.1-1-0.4-2-1.2-2.8
			c-0.7-0.8-1.6-1-2.6-0.8c-1.1,0.2-1.7,1-2.1,1.9c-0.5,1.1-0.6,2.3-0.5,3.5c0,0.9,0.2,1.8,0.7,2.6c1,1.6,3,2.1,4.4,1
			c0.8-0.6,1.1-1.5,1.3-2.4c-0.4-0.1-0.8-0.1-1.1-0.2C47.4,40.6,47.2,41,47,41.3 M44.6,35.3c0.6-0.5,1.5-0.4,2,0.1
			c0.5,0.5,0.7,1.1,0.8,1.8c0,0.1,0,0.3,0,0.5h-3.9C43.7,36.7,43.9,35.9,44.6,35.3"/>
		<path fill="#404447" d="M108,36c-0.4,0.1-0.8,0.1-1.1,0.2c0,0,0-0.1,0-0.1c-0.2-1.3-1.4-1.8-2.5-1.2c-0.4,0.2-0.6,0.5-0.6,1
			c0,0.5,0.2,0.8,0.6,1c0.7,0.3,1.4,0.5,2.1,0.8c0.1,0,0.2,0.1,0.3,0.1c1.3,0.6,1.7,1.4,1.5,3c-0.2,1.2-1.1,2.2-2.2,2.3
			c-0.5,0.1-1,0.1-1.4,0c-1.2-0.2-1.8-1.1-2.1-2.2c-0.1-0.2-0.1-0.4-0.1-0.6c0,0,0-0.1,0-0.1c0.4-0.1,0.8-0.2,1.2-0.2
			c0.1,0.3,0.1,0.5,0.2,0.8c0.4,1.1,1.8,1.5,2.7,0.9c0.5-0.3,0.6-0.8,0.6-1.3c0-0.5-0.4-0.8-0.8-1c-0.7-0.3-1.5-0.6-2.2-0.9
			c-1-0.4-1.5-1.3-1.4-2.4c0-1.6,1.2-2.7,2.8-2.6c0.4,0,0.9,0.1,1.3,0.3c0.8,0.4,1.1,1.1,1.3,1.9C107.9,35.7,107.9,35.8,108,36"/>
		<path fill="#404447" d="M64.4,36c-0.4,0.1-0.7,0.1-1.1,0.2c0-0.1,0-0.1,0-0.2c-0.2-1.4-1.4-1.5-2.4-1.2c-0.5,0.2-0.7,0.5-0.7,1
			c0,0.5,0.2,0.8,0.6,1c0.7,0.3,1.3,0.5,2,0.8c0.1,0,0.2,0.1,0.3,0.1c1.4,0.5,1.7,1.6,1.5,2.9c-0.1,1.3-1,2.2-2.2,2.4
			c-0.5,0.1-1,0.1-1.4,0c-1.2-0.2-1.8-1.1-2.1-2.2c0-0.1,0-0.2-0.1-0.3c0-0.1,0-0.2-0.1-0.4c0.4-0.1,0.8-0.2,1.2-0.2
			c0.1,0.3,0.1,0.5,0.2,0.7c0.4,1.1,1.8,1.6,2.8,0.9c0.6-0.5,0.9-1.8-0.2-2.2c-0.8-0.3-1.6-0.6-2.3-0.9c-1.1-0.5-1.5-1.6-1.3-2.9
			c0.2-1.1,1-1.9,2.1-2c0.5,0,1,0,1.4,0.1c1.1,0.3,1.6,1.1,1.8,2.1C64.4,35.7,64.4,35.8,64.4,36C64.4,35.9,64.4,35.9,64.4,36"/>
		<path fill="#404447" d="M93,39.4c0.4,0.1,0.8,0.1,1.2,0.2c-0.2,1.2-0.5,2.3-1.6,3c-1.2,0.7-2.7,0.4-3.6-0.8
			c-0.5-0.7-0.8-1.5-0.9-2.3c-0.2-1.3-0.1-2.6,0.3-3.8c0.4-1.1,1-1.9,2.1-2.2c1.5-0.4,2.9,0.3,3.4,1.8c0.1,0.3,0.2,0.6,0.2,1
			c-0.4,0.1-0.8,0.2-1.2,0.2c-0.1-0.3-0.2-0.6-0.3-0.8c-0.5-1.2-1.7-1.4-2.6-0.5c-0.5,0.5-0.7,1.1-0.7,1.7c-0.1,1-0.1,2.1,0.1,3.1
			c0.1,0.5,0.3,1,0.7,1.3c0.7,0.6,1.7,0.5,2.3-0.2C92.7,40.6,92.9,40.1,93,39.4"/>
		<path fill="#404447" d="M82.9,33.6h1.2c-0.9,3.1-1.8,6.2-2.7,9.2h-1.2c-0.9-3.1-1.8-6.1-2.7-9.2c0.4,0,0.8,0,1.2,0
			c0.1,0,0.1,0.1,0.2,0.2c0.6,2.3,1.3,4.7,1.9,7c0,0,0,0.1,0,0.1C81.6,38.4,82.2,36,82.9,33.6"/>
		<path fill="#404447" d="M33.5,1.9c-1.2,0.4-2.3,0.8-3.4,1.3c-0.4,0.2-0.9,0.3-1.3,0.5c-0.1,0-0.3,0-0.4,0c-1.3-0.5-2.6-1.1-4-1.7
			c0,0-0.1,0-0.1-0.1c1.4-0.6,2.7-1.2,4.1-1.7C28.7,0,29,0,29.4,0.2C30.7,0.8,32.1,1.3,33.5,1.9"/>
		<path fill="#404447" d="M19.3,27.2c-1,0.4-2,0.7-3,1.1c-0.6,0.2-1.2,0.4-1.8,0.7c-0.1,0-0.2,0.1-0.3,0c-1.4-0.6-2.7-1.2-4.2-1.8
			c0.3-0.1,0.6-0.3,0.9-0.4c1.1-0.5,2.3-1,3.4-1.5c0.1-0.1,0.3-0.1,0.4,0c1.4,0.6,2.8,1.2,4.3,1.8C19.2,27.1,19.2,27.1,19.3,27.2"/>
		<path fill="#404447" d="M17.3,14.1c0.6-0.2,1.1-0.5,1.6-0.7c0.9-0.4,1.9-0.8,2.8-1.2c0.1,0,0.3-0.1,0.4,0c1.4,0.6,2.8,1.2,4.2,1.8
			c0,0,0.1,0,0.2,0.1c-0.8,0.3-1.6,0.6-2.3,0.9c-0.8,0.3-1.6,0.6-2.4,0.9c-0.1,0-0.2,0.1-0.3,0C20.1,15.3,18.7,14.7,17.3,14.1"/>
		<path fill="#404447" d="M2.5,14.5c1.5-0.7,3-1.3,4.4-1.9c0.1,0,0.2,0,0.3,0c1.4,0.6,2.9,1.2,4.3,1.9c0,0,0,0,0.1,0.1
			c-0.5,0.2-0.9,0.3-1.3,0.5c-1.1,0.4-2.2,0.8-3.3,1.2c-0.1,0-0.3,0.1-0.4,0c-1.3-0.5-2.6-1.1-3.9-1.7C2.6,14.5,2.6,14.5,2.5,14.5"
			/>
		<path fill="#404447" d="M38.8,1.9c1-0.4,1.9-0.8,2.9-1.2c0.5-0.2,1-0.4,1.5-0.6c0.1,0,0.3-0.1,0.4,0C45,0.6,46.4,1.3,48,1.9
			c-0.5,0.2-1,0.4-1.4,0.5c-1.1,0.4-2.2,0.8-3.3,1.2c-0.1,0.1-0.4,0-0.5,0c-1.2-0.5-2.5-1.1-3.7-1.6C39,2,38.9,2,38.8,1.9"/>
		<path fill="#404447" d="M74.8,33.6v1.3c0,0,0,0,0,0c0.1-0.2,0.3-0.5,0.4-0.7c0.2-0.4,0.6-0.7,1.1-0.8c0.4,0,0.8,0.2,1.2,0.4
			c0,0,0.1,0.2,0,0.2c-0.1,0.4-0.2,0.8-0.3,1.3c-0.1,0-0.1-0.1-0.2-0.1c-0.7-0.4-1.4-0.2-1.7,0.5c-0.2,0.5-0.3,1-0.3,1.5
			c-0.1,1.8,0,3.5-0.1,5.3c0,0.1,0,0.2,0,0.3h-1.2v-9.2H74.8z"/>
		<rect x="85.2" y="33.6" fill="#404447" width="1.2" height="9.2"/>
		<path fill="#404447" d="M112.3,34h0.7c0.3,1,0.7,2,1,3c0.2-0.5,0.3-0.9,0.4-1.2c0.2-0.5,0.3-1,0.5-1.5c0.1-0.2,0.2-0.3,0.4-0.3
			c0.1,0,0.2,0,0.3,0v3.5h-0.4v-2.7c0,0,0,0-0.1,0c-0.3,0.9-0.6,1.8-1,2.8h-0.4c-0.3-0.9-0.6-1.9-1-2.8c0,0,0,0-0.1,0v2.8h-0.4V34z"
			/>
		<polygon fill="#404447" points="111.8,34 111.8,34.4 110.6,34.4 110.6,36 110.6,37.5 110.1,37.5 110.1,34.4 109,34.4 109,34 		"/>
		<rect x="85.2" y="30.1" fill="#404447" width="1.2" height="1.8"/>
	</g>
</g>
</svg>
