<?xml version="1.0" encoding="utf-8"?>
<!-- Generator: Adobe Illustrator 19.1.0, SVG Export Plug-In . SVG Version: 6.00 Build 0)  -->
<svg version="1.1" id="Layer_1" xmlns="http://www.w3.org/2000/svg" xmlns:xlink="http://www.w3.org/1999/xlink" x="0px" y="0px"
	 viewBox="-454 256.5 49.1 49.5" style="enable-background:new -454 256.5 49.1 49.5;" xml:space="preserve">
<style type="text/css">
	.st0{fill:#404447;}
</style>
<g>
	<path class="st0" d="M-451.9,291.2c-1.4-3.2-2.1-6.5-2.1-9.9l4.2,0c0,2.8,0.6,5.6,1.7,8.2"/>
	<path class="st0" d="M-429.4,292.4c-6.1,0-11.1-5-11.1-11.1c0-6.1,5-11.1,11.1-11.1c5.1,0,9.3,3.4,10.7,8h4.3
		c-1.4-6.9-7.6-12.2-15-12.2c-8.4,0-15.3,6.8-15.3,15.3c0,8.4,6.9,15.3,15.3,15.3c7.4,0,13.5-5.2,15-12.2h-4.3
		C-420,289-424.3,292.4-429.4,292.4"/>
	<path class="st0" d="M-436.8,288.7c1.9,1.9,4.6,3.1,7.5,3.1v-4.4c-1.7,0-3.2-0.7-4.4-1.8L-436.8,288.7L-436.8,288.7z"/>
	<path class="st0" d="M-439.9,281.2c0,1.5,0.3,3,0.9,4.3l4-1.8c-0.3-0.8-0.5-1.6-0.5-2.5c0-3.4,2.8-6.2,6.2-6.2v-4.4
		C-435.2,270.7-439.9,275.4-439.9,281.2"/>
	<path class="st0" d="M-425.5,271.4l-1.6,4.1c1.3,0.5,2.4,1.5,3.1,2.7h4.8C-420.2,275.1-422.5,272.6-425.5,271.4"/>
	<path class="st0" d="M-427.1,287l1.6,4.1c3-1.2,5.3-3.7,6.3-6.8h-4.8C-424.7,285.5-425.8,286.5-427.1,287"/>
	<path class="st0" d="M-429.4,301.7c-5.6,0-10.8-2.3-14.5-6l-3,3c4.5,4.5,10.6,7.2,17.4,7.2c12.6,0,22.9-9.4,24.5-21.6h-4.2
		C-410.6,294.2-419.1,301.7-429.4,301.7"/>
	<path class="st0" d="M-429.4,260.8c4.6,0,8.8,1.5,12.2,4.1l2.5-3.4c-4.1-3.1-9.2-4.9-14.7-4.9c-10.5,0-19.4,6.5-23,15.7l3.9,1.5
		C-445.4,266.2-438,260.8-429.4,260.8"/>
	<path class="st0" d="M-409.1,278.2h4.2c-0.5-3.6-1.7-7-3.5-10l-3.6,2.2C-410.5,272.7-409.5,275.4-409.1,278.2"/>
	<path class="st0" d="M-413.9,278.2h4.2c-1.1-7.1-6-13-12.5-15.5l-1.5,3.9C-418.7,268.5-414.9,272.8-413.9,278.2"/>
	<path class="st0" d="M-429.4,265.5L-429.4,265.5l0-4.2h0c-8.5,0-15.7,5.3-18.6,12.7l3.9,1.5C-441.8,269.6-436,265.5-429.4,265.5"/>
	<path class="st0" d="M-445.1,281.2L-445.1,281.2l-4.2,0v0c0,8.4,5.2,15.6,12.5,18.5l1.5-3.9C-441,293.6-445.1,287.9-445.1,281.2"/>
	<path class="st0" d="M-429.4,297v4.2c10,0,18.2-7.3,19.7-16.9h-4.2C-415.3,291.6-421.7,297-429.4,297"/>
</g>
</svg>
