<?xml version="1.0" encoding="utf-8"?>
<!-- Generator: Adobe Illustrator 19.1.0, SVG Export Plug-In . SVG Version: 6.00 Build 0)  -->
<svg version="1.1" id="Layer_1" xmlns="http://www.w3.org/2000/svg" xmlns:xlink="http://www.w3.org/1999/xlink" x="0px" y="0px"
	 viewBox="0 0 113.2 114" enable-background="new 0 0 113.2 114" xml:space="preserve">
<g id="XMLID_193_">
	<g id="XMLID_168_">
		<g id="XMLID_196_">
			<path id="XMLID_963_" fill="#445464" d="M108.6,91.6c-1.6-4.3-4.1-7.6-9.2-7.6h-6.4V6.2C93.1,3,90.7,0,87.6,0H25.6
				c-3.1,0-5.6,3-5.6,6.2V84h-6.3c-5.1,0-7.4,3.1-9.2,7.6L0,106.4c0,4.2,4.1,7.6,9.2,7.6h94.9c5.1,0,9.2-3.4,9.2-7.6L108.6,91.6z
				 M58.1,74v-2h18v-2h10v7h-10v-3H58.1z M28.1,12.3C28.1,9.4,30,7,32.8,7h48.3c2.9,0,4.9,2.4,4.9,5.3v38.2c0,2.9-2,4.6-4.9,4.6
				H32.8c-2.9,0-4.8-1.7-4.8-4.6V12.3z M29.6,106l1.2-5h51.7l1.1,5H29.6z"/>
		</g>
	</g>
	<g id="XMLID_194_">
		<g>
			<path id="XMLID_23_" fill="#F08921" d="M54.5,26.6l0.3-0.1c5.1-0.2,7.2-1.5,7.2-3.6v-0.1c0-1.8-1.5-2.9-3.8-2.9
				c-2.3,0-4.3,0.9-6.1,2.8l-3.7-4.1c2.3-2.6,5.5-4.3,9.9-4.3c5.8,0,9.8,3,9.8,8.3v0.1c0,5.1-3.6,7.1-8,8L59.5,33h-4.1L54.5,26.6z
				 M54.1,36h7v7h-7V36z"/>
		</g>
	</g>
</g>
</svg>
