<?xml version="1.0" encoding="utf-8"?>
<!-- Generator: Adobe Illustrator 19.1.0, SVG Export Plug-In . SVG Version: 6.00 Build 0)  -->
<svg version="1.1" id="Layer_1" xmlns="http://www.w3.org/2000/svg" xmlns:xlink="http://www.w3.org/1999/xlink" x="0px" y="0px"
	 viewBox="0 0 36.5 41.8" enable-background="new 0 0 36.5 41.8" xml:space="preserve">
<g id="XMLID_5_">
	<path id="XMLID_164_" fill="#445464" d="M18.3,8.5C12.7,8.5,8.2,13,8.2,18.6c0,2.2,0.5,4.2,1.7,5.8c1.4,2.3,3,4.8,3,7.4v0.1
		c0,0.2,0.5-0.1,0.7-0.1h9.4c0.2,0-0.1,0.3-0.1,0.1v-0.1c0-2.7,2.1-5.2,3.5-7.6c1.1-1.6,1.8-3.6,1.8-5.7C28.2,13,23.8,8.5,18.3,8.5
		L18.3,8.5z"/>
	<path id="XMLID_159_" fill="#445464" d="M22.3,36.8h-8c-0.6,0-1,0.4-1,1c0,0.6,0.5,1,1,1h8c0.6,0,1-0.4,1-1
		C23.3,37.3,22.8,36.8,22.3,36.8L22.3,36.8z"/>
	<path id="XMLID_51_" fill="#445464" d="M22.3,33.8h-8c-0.6,0-1,0.4-1,1c0,0.6,0.5,1,1,1h8c0.6,0,1-0.4,1-1
		C23.3,34.3,22.8,33.8,22.3,33.8L22.3,33.8z"/>
	<path id="XMLID_50_" fill="#F08921" d="M15.2,39.8c-0.2,0-0.2,0.2-0.1,0.3l1.5,1.5c0.1,0.1,0.4,0.2,0.6,0.2h2
		c0.2,0,0.4-0.1,0.6-0.2l1.5-1.6c0.1-0.1,0.1-0.3-0.1-0.3H15.2L15.2,39.8z"/>
	<path id="XMLID_49_" fill="#F08921" d="M28,27.6l3.7,3.5c0.7-0.7,1.4-1.6,1.9-2.4l-4.2-2.8C28.9,26.5,28.5,27.1,28,27.6L28,27.6z"
		/>
	<path id="XMLID_48_" fill="#F08921" d="M36.5,21l-5-0.7c-0.1,0.8-0.3,1.5-0.5,2.2l4.8,1.5C36.1,23.1,36.3,22.1,36.5,21L36.5,21
		L36.5,21L36.5,21z"/>
	<path id="XMLID_47_" fill="#F08921" d="M31.5,16.5l5-0.7c-0.1-1-0.4-2-0.7-3L31,14.3C31.2,15.1,31.4,15.8,31.5,16.5L31.5,16.5z"/>
	<path id="XMLID_46_" fill="#F08921" d="M33.6,8.2c-0.6-0.9-1.2-1.7-1.9-2.4L28,9.2c0.5,0.5,1,1.1,1.4,1.8L33.6,8.2L33.6,8.2z"/>
	<path id="XMLID_45_" fill="#F08921" d="M27.6,2.5c-0.9-0.5-1.8-1-2.8-1.3L23,5.9c0.7,0.3,1.4,0.6,2,1L27.6,2.5L27.6,2.5z"/>
	<path id="XMLID_37_" fill="#F08921" d="M18.3,5c0.4,0,0.7,0,1.1,0l0.4-5c-0.5,0-1-0.1-1.6-0.1c-0.5,0-1,0-1.5,0.1l0.4,5
		C17.5,5.1,17.9,5,18.3,5L18.3,5z"/>
	<path id="XMLID_35_" fill="#F08921" d="M13.5,5.9l-1.8-4.7c-1,0.4-1.9,0.8-2.8,1.3l2.6,4.3C12.1,6.5,12.8,6.2,13.5,5.9L13.5,5.9z"
		/>
	<path id="XMLID_32_" fill="#F08921" d="M8.5,9.2L4.9,5.8C4.1,6.5,3.5,7.3,2.9,8.2L7.1,11C7.5,10.4,8,9.8,8.5,9.2L8.5,9.2z"/>
	<path id="XMLID_31_" fill="#F08921" d="M4.4,16.5L5,16.6c0.1-0.8,0.3-1.5,0.5-2.2l-4.8-1.5c-0.3,1-0.5,2-0.7,3h0l0,0.1L4.4,16.5
		L4.4,16.5z"/>
	<path id="XMLID_30_" fill="#F08921" d="M5,20.3L0,21c0.1,1,0.4,2,0.7,3l4.8-1.5C5.3,21.8,5.1,21.1,5,20.3L5,20.3z"/>
	<path id="XMLID_28_" fill="#F08921" d="M2.9,28.7c0.6,0.9,1.2,1.7,1.9,2.4l3.7-3.5c-0.5-0.5-1-1.1-1.4-1.8L2.9,28.7L2.9,28.7z"/>
</g>
</svg>
